<?xml version="1.0" encoding="utf-8"?>
<!-- Generator: Adobe Illustrator 16.0.0, SVG Export Plug-In . SVG Version: 6.00 Build 0)  -->
<!DOCTYPE svg PUBLIC "-//W3C//DTD SVG 1.1//EN" "http://www.w3.org/Graphics/SVG/1.1/DTD/svg11.dtd">
<svg version="1.1" id="Layer_1" xmlns="http://www.w3.org/2000/svg" xmlns:xlink="http://www.w3.org/1999/xlink" x="0px" y="0px"
	 width="50px" height="29.924px" viewBox="0 0 50 29.924" enable-background="new 0 0 50 29.924" xml:space="preserve">
<g>
	<path fill-rule="evenodd" clip-rule="evenodd" fill="#4473B9" d="M50,0H0.018v11.299l1.898-4.465h2.476l1.464,3.443V6.834h3.508
		l1.184,2.999l1.247-2.999h3.492v0.001h5.324V6.834h4l0.348,0.004l0.331,0.016L25.6,6.88l0.293,0.037l0.274,0.053l0.26,0.064
		l0.246,0.087l0.223,0.104l0.142,0.083l0.127,0.084l0.116,0.09l0.08,0.07V6.834h2.839v0.912L30.242,7.7l0.15-0.14l0.16-0.126
		l0.17-0.116L30.9,7.22l0.185-0.089l0.192-0.073l0.2-0.063l0.204-0.051l0.212-0.042l0.22-0.029l0.226-0.022l0.232-0.013l0.232-0.003
		h2.624h0.131h2.346l1.661,3.915V6.834h2.853L43.4,8.628V6.834h2.784v7.192h-2.783l-1.052-1.841v1.841h-1.39h-1.395h-1.795
		l-0.551-1.289h-1.105l-0.556,1.289h-2.807h-0.147l-0.143-0.003l-0.139-0.004l-0.126-0.008l-0.124-0.009l-0.118-0.012l-0.113-0.016
		l-0.122-0.021l-0.324-0.078l-0.322-0.116l-0.306-0.153l-0.281-0.189l-0.255-0.223l-0.032-0.037v0.868h-1.633H27.36h-2.112
		l-0.212-0.631l-0.028-0.106l-0.025-0.108l-0.021-0.115l-0.021-0.119l-0.021-0.133l-0.018-0.141l-0.018-0.142L24.87,12.43
		l-0.015-0.083l-0.015-0.075l-0.017-0.062l-0.014-0.048l-0.015-0.039l-0.013-0.026l-0.007-0.013l-0.005-0.007l-0.004-0.01
		l-0.008-0.009l-0.008-0.008l-0.012-0.008l-0.02-0.013l-0.023-0.015l-0.019-0.01l-0.034-0.014l-0.054-0.018l-0.071-0.017
		l-0.085-0.017l-0.104-0.015l-0.121-0.01l-0.133-0.005l-0.155-0.001h-0.303v2.115h-2.006H20.61h-5.324h-0.157h-2.864v-1.058
		l-0.455,1.058H9.22l-0.343-0.845v0.845H7.449H5.855H4.257l-0.549-1.289H2.601l-0.554,1.289H0.018v15.897H50v-6.532l-0.046,0.046
		l-0.188,0.154L49.56,23.72l-0.218,0.104l-0.229,0.078l-0.223,0.052l-0.124,0.018l-0.117,0.014l-0.123,0.012l-0.128,0.008
		l-0.133,0.008l-0.141,0.004l-0.152,0.002l-0.158,0.001h-3.52v-0.479l-0.063,0.051l-0.205,0.128l-0.219,0.104l-0.229,0.078
		l-0.224,0.052l-0.126,0.018l-0.116,0.014l-0.122,0.012l-0.127,0.008l-0.133,0.008l-0.144,0.004l-0.15,0.002l-0.156,0.001h-2.837
		H38.76h-4.549h-1.25h-1.885l-0.195-0.653l-0.025-0.103l-0.024-0.107l-0.018-0.112l-0.017-0.119l-0.02-0.133l-0.018-0.139
		l-0.014-0.143l-0.013-0.101l-0.016-0.087l-0.013-0.078l-0.014-0.063l-0.015-0.054l-0.014-0.043l-0.012-0.028l-0.007-0.014
		l-0.006-0.007l-0.006-0.01l-0.006-0.009l-0.005-0.004l-0.006-0.007l-0.012-0.009l-0.018-0.012l-0.008-0.006l-0.02-0.008
		l-0.038-0.013l-0.054-0.017L30.4,21.931l-0.088-0.012l-0.099-0.011l-0.113-0.006L29.965,21.9h-0.187v2.119h-2.864v-2.781
		l-0.071,0.078l-0.107,0.103l-0.11,0.093l-0.102,0.077l-0.103,0.07l-0.107,0.065l-0.109,0.06l-0.11,0.053l-0.116,0.048l-0.118,0.043
		l-0.118,0.034l-0.119,0.03l-0.124,0.022l-0.128,0.019l-0.128,0.016l-0.133,0.012l-0.141,0.008l-0.145,0.003l-0.144,0.001h-1.314
		v1.947h-3.761l-1.085-1.392L17.46,24.02h-7.25v-7.193h3.596h-0.002h3.792l0.944,1.3l1.025-1.3h4.771l0.215,0.001l0.206,0.006
		l0.192,0.01l0.181,0.012l0.172,0.02l0.162,0.022l0.154,0.028l0.161,0.04L26,17.044l0.21,0.094l0.198,0.118l0.187,0.133l0.174,0.152
		l0.146,0.152v-0.867h3.671L30.9,16.83l0.306,0.017l0.283,0.027l0.271,0.038l0.257,0.053l0.243,0.07l0.236,0.089l0.209,0.11
		l0.134,0.087l0.118,0.088l0.003,0.003v-0.586h6.373v0.532l0.149-0.116l0.206-0.125l0.216-0.098l0.223-0.074l0.229-0.056
		l0.232-0.034l0.094-0.009l0.085-0.006l0.092-0.005l0.1-0.004l0.1-0.002l0.106-0.003l0.114-0.001h0.12h3.488v0.518l0.13-0.102
		l0.206-0.125l0.216-0.098l0.222-0.074l0.23-0.056l0.23-0.034l0.096-0.009l0.083-0.006l0.093-0.005l0.097-0.004l0.102-0.002
		l0.106-0.003l0.114-0.001h0.122H50V0z M39.444,21.407l0.282-0.002l-0.206-0.116l-0.182-0.135l-0.112-0.1l-0.093-0.094l-0.086-0.101
		l-0.079-0.104l-0.072-0.104v0.669h0.548V21.407L39.444,21.407z M45.185,21.362l0.003,0.043h0.073L45.185,21.362L45.185,21.362z
		 M16.146,20.943l0.452-0.554l-0.452-0.564V20.943L16.146,20.943z M34.317,9.446h-1.353l-0.154,0.005l-0.12,0.014l-0.099,0.02
		l-0.075,0.022l-0.061,0.024l-0.044,0.026L32.38,9.581l-0.019,0.02l-0.003,0.005l-0.014,0.021l-0.021,0.048l-0.021,0.076
		L32.28,9.857l-0.017,0.135l-0.012,0.16l-0.005,0.182l0.007,0.251l0.018,0.217l0.028,0.177l0.036,0.141l0.037,0.101l0.031,0.061
		l0.021,0.029l0.017,0.017l0.021,0.011l0.042,0.017l0.062,0.018l0.079,0.019l0.1,0.013l0.116,0.008l0.146,0.004h0.476L34.317,9.446
		L34.317,9.446z"/>
	<path fill-rule="evenodd" clip-rule="evenodd" fill="#4473B9" d="M10.99,10.74h1.296l-1.061,2.467H9.711L8.006,9.01v4.197H6.603
		V7.618h2.152l1.722,4.361L10.99,10.74L10.99,10.74z M13.031,10.74h1.404v2.467h-1.404V10.74L13.031,10.74z M15.903,10.74h4.328
		v0.115h-3.006v1.273h3.555v1.078h-4.877V10.74L15.903,10.74z M21.402,10.74h4.832c-0.062,0.023-0.127,0.045-0.196,0.064
		c0.257,0.072,0.449,0.154,0.581,0.243c0.13,0.085,0.249,0.214,0.355,0.383c0.079,0.132,0.134,0.259,0.17,0.384
		c0.032,0.125,0.06,0.309,0.083,0.551c0.037,0.4,0.092,0.681,0.158,0.842h-1.561c-0.049-0.131-0.097-0.394-0.145-0.793
		c-0.039-0.327-0.107-0.579-0.209-0.752c-0.101-0.174-0.254-0.309-0.458-0.407c-0.252-0.117-0.619-0.174-1.1-0.172h-1.122v2.124
		h-1.39V10.74L21.402,10.74z M28.174,10.74h1.218v2.467h-1.218V10.74L28.174,10.74z M30.107,10.74h1.356
		c0.048,0.589,0.208,0.99,0.475,1.202c0.23,0.181,0.588,0.27,1.071,0.27h1.025l0.627-1.472h1.289l-0.074,0.178h1.634l-0.075-0.178
		h1.286l1.05,2.467h-1.436l-0.553-1.294h-2.182l-0.557,1.294H34.77h-1.156h-0.847c-0.379,0-0.67-0.019-0.873-0.057
		c-0.702-0.134-1.204-0.518-1.501-1.15C30.23,11.648,30.135,11.229,30.107,10.74L30.107,10.74z M40.416,10.74h1.164v2.467h-1.164
		V10.74L40.416,10.74z M42.513,10.74h1.177l0.57,1.041V10.74h1.165v2.467h-1.506L42.513,10.74L42.513,10.74z M45.425,10.74H44.26
		V7.618h1.165V10.74L45.425,10.74z M43.689,10.74h-1.177L41.58,9.107v1.633h-1.164V7.618h1.563L43.689,10.74L43.689,10.74z
		 M38.722,10.74h-1.286l-0.741-1.779l-0.743,1.779h-1.289l1.326-3.122h1.407L38.722,10.74L38.722,10.74z M31.464,10.74h-1.356
		c-0.006-0.101-0.009-0.204-0.009-0.313c0-0.751,0.15-1.364,0.451-1.835c0.215-0.339,0.504-0.587,0.868-0.741
		c0.361-0.154,0.833-0.233,1.408-0.233h1.943v0.995h-1.803c-0.548,0-0.947,0.143-1.204,0.426c-0.211,0.235-0.315,0.66-0.315,1.278
		C31.447,10.468,31.452,10.608,31.464,10.74L31.464,10.74z M29.392,10.74h-1.218V7.618h1.218V10.74L29.392,10.74z M26.234,10.74
		h-4.832V7.618h3.19c0.916,0,1.558,0.1,1.92,0.299c0.247,0.134,0.438,0.311,0.573,0.529c0.135,0.221,0.203,0.464,0.203,0.727
		c0,0.533-0.158,0.942-0.473,1.23C26.661,10.542,26.469,10.653,26.234,10.74L26.234,10.74z M20.231,10.74h-4.328V7.619h4.768v1.046
		h-3.445v1.129h3.006V10.74L20.231,10.74z M14.436,10.74h-1.404V9.01l-0.745,1.73H10.99l1.296-3.122h2.149V10.74L14.436,10.74z
		 M39.605,23.229v-0.993h2.468c0.397,0,0.66-0.042,0.793-0.124c0.19-0.118,0.286-0.293,0.286-0.528c0-0.271-0.112-0.467-0.334-0.594
		c-0.126-0.071-0.33-0.106-0.607-0.106h-1c-0.613,0-1.054-0.114-1.323-0.345c-0.17-0.145-0.302-0.326-0.396-0.546
		c-0.096-0.219-0.144-0.455-0.144-0.703c0-0.392,0.112-0.752,0.333-1.075c0.216-0.313,0.564-0.497,1.041-0.548
		c0.16-0.018,0.401-0.025,0.72-0.025h2.683v0.994h-2.42c-0.361,0.004-0.603,0.021-0.721,0.049c-0.242,0.063-0.365,0.254-0.365,0.57
		c0.001,0.266,0.103,0.446,0.306,0.54c0.137,0.063,0.364,0.094,0.682,0.094h0.867c0.443,0,0.775,0.039,0.993,0.118
		c0.384,0.134,0.646,0.368,0.788,0.706c0.118,0.269,0.177,0.558,0.177,0.866c0,0.339-0.078,0.644-0.228,0.915
		c-0.21,0.382-0.529,0.61-0.953,0.684c-0.207,0.034-0.517,0.052-0.928,0.052H39.605L39.605,23.229z M33.789,17.641h4.766v1.048
		h-3.443v1.126h3.007v1.063h-3.007v1.274h3.554v1.077h-4.876V17.641L33.789,17.641z M10.971,17.641h4.417l0,0h1.762l1.336,1.837
		l1.448-1.837h1.285h0.463h2.641c0.565,0,0.97,0.034,1.217,0.106c0.408,0.122,0.729,0.379,0.967,0.765
		c0.175,0.287,0.264,0.604,0.264,0.946c0,0.283-0.058,0.554-0.173,0.808c-0.116,0.254-0.276,0.462-0.483,0.627
		c-0.183,0.145-0.379,0.244-0.588,0.301c-0.211,0.056-0.495,0.084-0.856,0.084h-2.128v1.951h-0.859h-0.463h-1.24l-1.493-1.916
		l-1.46,1.916h-1.18h-0.542h-4.333V17.641L10.971,17.641z M15.736,18.073v0.615h-3.445v1.126h3.005v1.063h-3.005v1.274h3.555
		l0.328,0.014l1.438-1.761L15.736,18.073L15.736,18.073z M45.158,23.229v-0.993h2.466c0.397,0,0.661-0.042,0.793-0.124
		c0.19-0.118,0.285-0.293,0.285-0.528c0.001-0.271-0.11-0.467-0.333-0.594c-0.125-0.071-0.33-0.106-0.607-0.106h-1.001
		c-0.612,0-1.053-0.114-1.322-0.345c-0.169-0.145-0.302-0.326-0.396-0.546c-0.096-0.219-0.144-0.455-0.144-0.703
		c0-0.392,0.11-0.752,0.333-1.075c0.217-0.313,0.564-0.497,1.04-0.548c0.161-0.018,0.403-0.025,0.721-0.025h2.683v0.994h-2.42
		c-0.362,0.004-0.603,0.021-0.721,0.049c-0.243,0.063-0.365,0.254-0.365,0.57c0,0.266,0.102,0.446,0.306,0.54
		c0.137,0.063,0.364,0.094,0.682,0.094h0.865c0.445,0,0.776,0.039,0.996,0.118c0.383,0.134,0.646,0.368,0.787,0.706
		c0.117,0.269,0.175,0.558,0.175,0.866c0,0.339-0.076,0.644-0.227,0.915c-0.211,0.382-0.528,0.61-0.954,0.684
		c-0.205,0.034-0.515,0.052-0.926,0.052H45.158L45.158,23.229z M28.971,20.11h1.752c0.294,0,0.5-0.042,0.624-0.122
		c0.187-0.127,0.278-0.342,0.278-0.648c0-0.341-0.14-0.56-0.421-0.656c-0.098-0.031-0.258-0.049-0.481-0.049h-1.752V20.11
		L28.971,20.11z M28.971,21.105v2.123h-1.247v-5.588h2.863c0.82,0,1.395,0.099,1.721,0.299c0.222,0.134,0.391,0.31,0.513,0.529
		c0.121,0.221,0.184,0.463,0.184,0.727c0,0.533-0.142,0.943-0.425,1.229c-0.175,0.177-0.406,0.308-0.697,0.401
		c0.231,0.073,0.404,0.154,0.521,0.243c0.12,0.085,0.225,0.215,0.319,0.384c0.07,0.132,0.121,0.258,0.152,0.382
		c0.03,0.126,0.054,0.31,0.075,0.553c0.032,0.399,0.082,0.682,0.142,0.841h-1.399c-0.045-0.131-0.087-0.396-0.13-0.792
		c-0.035-0.328-0.098-0.58-0.188-0.752c-0.088-0.175-0.227-0.311-0.41-0.407c-0.226-0.118-0.556-0.175-0.988-0.172H28.971
		L28.971,21.105z M21.219,18.195l-1.84,2.209l1.84,2.258V18.195L21.219,18.195z M22.541,20.282h1.804
		c0.321,0,0.55-0.047,0.679-0.141c0.196-0.138,0.291-0.379,0.291-0.724c0-0.378-0.146-0.619-0.441-0.727
		c-0.104-0.036-0.274-0.057-0.501-0.057h-1.831V20.282L22.541,20.282z M3.081,8.961l-0.819,1.957h1.635L3.081,8.961L3.081,8.961z
		 M0,13.207l2.376-5.589h1.408l2.374,5.589H4.725l-0.553-1.294H1.989l-0.556,1.294H0L0,13.207z M22.792,10.088h1.954
		c0.327,0,0.557-0.041,0.694-0.123c0.209-0.125,0.312-0.341,0.312-0.647c0.002-0.341-0.156-0.559-0.469-0.654
		c-0.11-0.033-0.288-0.05-0.537-0.05h-1.954V10.088L22.792,10.088z"/>
</g>
</svg>
