<?xml version="1.0" encoding="utf-8"?>
<!-- Generator: Adobe Illustrator 16.0.0, SVG Export Plug-In . SVG Version: 6.00 Build 0)  -->
<!DOCTYPE svg PUBLIC "-//W3C//DTD SVG 1.1//EN" "http://www.w3.org/Graphics/SVG/1.1/DTD/svg11.dtd">
<svg version="1.1" id="Layer_1" xmlns="http://www.w3.org/2000/svg" xmlns:xlink="http://www.w3.org/1999/xlink" x="0px" y="0px"
	 width="50px" height="30px" viewBox="0 0 50 30" enable-background="new 0 0 50 30" xml:space="preserve">
<g>
	<rect fill="#003473" width="50" height="30"/>
	<path fill-rule="evenodd" clip-rule="evenodd" fill="#FCB131" d="M25.047,22.78c1.852,1.688,4.308,2.716,7.003,2.716
		c5.762,0,10.432-4.699,10.432-10.496c0-5.797-4.67-10.496-10.432-10.496c-2.695,0-5.151,1.028-7.003,2.716
		c-2.105,1.92-3.429,4.695-3.429,7.78S22.941,20.859,25.047,22.78L25.047,22.78z"/>
	<path fill-rule="evenodd" clip-rule="evenodd" fill="#ED1C2E" d="M28.419,13.888c-0.04-0.376-0.1-0.747-0.177-1.11h-6.389
		c0.081-0.379,0.182-0.75,0.303-1.112h5.782c-0.126-0.381-0.274-0.752-0.441-1.111h-4.896c0.178-0.385,0.38-0.754,0.603-1.112h3.692
		c-0.241-0.388-0.507-0.759-0.795-1.111h-2.104c0.323-0.396,0.674-0.768,1.051-1.111c-1.851-1.688-4.307-2.716-7.002-2.716
		C12.283,4.504,7.612,9.203,7.612,15c0,5.797,4.671,10.496,10.433,10.496c2.695,0,5.151-1.028,7.002-2.716l0,0l0,0
		c0.378-0.345,0.729-0.716,1.054-1.112h-2.104c-0.288-0.352-0.553-0.724-0.793-1.111h3.692c0.222-0.356,0.423-0.728,0.602-1.111
		h-4.896c-0.168-0.36-0.317-0.729-0.444-1.111h5.782c0.121-0.361,0.223-0.732,0.304-1.111c0.077-0.363,0.137-0.734,0.177-1.111
		c0.037-0.365,0.058-0.736,0.058-1.111S28.456,14.254,28.419,13.888L28.419,13.888z"/>
	<path fill-rule="evenodd" clip-rule="evenodd" fill="#FFFFFF" d="M41.552,17.375c0-0.029-0.014-0.059-0.037-0.074
		c-0.024-0.015-0.051-0.016-0.076-0.016h-0.125v0.299h0.068v-0.118h0.051l0.046,0.118h0.076L41.5,17.452
		C41.532,17.44,41.552,17.408,41.552,17.375z M41.463,17.408c-0.013,0.008-0.028,0.006-0.042,0.006h-0.039v-0.076h0.037
		c0.013,0,0.032-0.001,0.044,0.006c0.01,0.007,0.018,0.02,0.018,0.031S41.474,17.402,41.463,17.408z"/>
	<path fill-rule="evenodd" clip-rule="evenodd" fill="#FFFFFF" d="M41.428,17.096c-0.186,0-0.337,0.152-0.337,0.339
		c0,0.188,0.151,0.339,0.337,0.339c0.187,0,0.337-0.151,0.337-0.339C41.765,17.248,41.614,17.096,41.428,17.096z M41.428,17.692
		c-0.142,0-0.256-0.116-0.256-0.258s0.114-0.258,0.256-0.258s0.257,0.116,0.257,0.258S41.569,17.692,41.428,17.692z"/>
	<path fill-rule="evenodd" clip-rule="evenodd" fill="#FFFFFF" d="M29.313,15.455c0-1.172,0.593-1.995,1.438-1.995
		c0.314,0,0.608,0.083,1.011,0.288l0.187-1.156c-0.101-0.042-0.131-0.053-0.273-0.104L31.21,12.37
		c-0.144-0.037-0.313-0.055-0.507-0.055c-1.501,0-2.551,1.33-2.551,3.233c0,1.417,0.761,2.298,1.979,2.298
		c0.313,0,0.583-0.041,1.001-0.155l0.199-1.213c-0.375,0.186-0.684,0.272-0.963,0.272C29.712,16.751,29.313,16.263,29.313,15.455z"
		/>
	<path fill-rule="evenodd" clip-rule="evenodd" fill="#FFFFFF" d="M28.313,13.384c-0.034-0.007-0.072-0.01-0.113-0.01
		c-0.372,0-0.584,0.191-0.931,0.703l0.101-0.657h-1.025l-0.69,4.33h1.133c0.406-2.648,0.512-3.104,1.056-3.104
		c0.034,0,0.038,0,0.083,0.004c0.101-0.523,0.239-0.906,0.43-1.256L28.313,13.384z"/>
	<path fill-rule="evenodd" clip-rule="evenodd" fill="#FFFFFF" d="M21.565,14.473h0.58l0.156-1.053h-0.579l0.13-0.642h-1.125
		l-0.491,2.955l-0.053,0.342l-0.069,0.424c-0.021,0.138-0.033,0.268-0.033,0.389c0,0.616,0.316,0.95,0.895,0.95
		c0.262,0,0.504-0.042,0.814-0.14l0.149-0.959c-0.076,0.027-0.176,0.041-0.306,0.041c-0.269,0-0.387-0.098-0.387-0.321
		c0-0.04,0.007-0.099,0.021-0.179L21.565,14.473z"/>
	<path fill-rule="evenodd" clip-rule="evenodd" fill="#FFFFFF" d="M19.16,14.347c0.222,0,0.525,0.024,0.813,0.065l0.161-1.002
		c-0.293-0.046-0.737-0.084-0.995-0.084c-1.265,0-1.704,0.665-1.699,1.464c0,0.547,0.264,0.924,0.861,1.207
		c0.458,0.218,0.528,0.281,0.528,0.478c0,0.27-0.202,0.391-0.649,0.391c-0.337,0-0.651-0.053-1.013-0.17l-0.155,0.998l0.051,0.01
		l0.207,0.045c0.066,0.013,0.165,0.025,0.295,0.037c0.269,0.024,0.478,0.037,0.623,0.037c1.193,0,1.744-0.458,1.744-1.445
		c0-0.595-0.229-0.943-0.796-1.205c-0.475-0.22-0.529-0.269-0.529-0.47C18.606,14.466,18.795,14.347,19.16,14.347z"/>
	<path fill-rule="evenodd" clip-rule="evenodd" fill="#FFFFFF" d="M40.339,12.426l-0.248,1.521c-0.31-0.41-0.645-0.593-1.085-0.593
		c-0.998,0-1.843,1.215-1.843,2.654c0,1.084,0.545,1.799,1.368,1.799c0.415,0,0.736-0.146,1.047-0.48l-0.056,0.424h1.071
		l0.861-5.324H40.339z M38.923,16.73c-0.385,0-0.58-0.287-0.58-0.853c0-0.852,0.364-1.456,0.879-1.456c0.39,0,0.6,0.298,0.6,0.849
		C39.821,16.129,39.45,16.73,38.923,16.73z"/>
	<path fill-rule="evenodd" clip-rule="evenodd" fill="#FFFFFF" d="M25.529,15.955c0.098-0.438,0.14-0.749,0.14-1.069
		c0-0.96-0.595-1.573-1.527-1.573c-1.139,0-1.979,1.093-1.979,2.58c0,1.273,0.66,1.938,1.926,1.939
		c0.396,0.002,0.771-0.057,1.159-0.176l0.189-1.081c-0.406,0.189-0.771,0.273-1.177,0.273c-0.657,0-0.992-0.256-0.992-0.759
		c0-0.039,0.002-0.068,0.01-0.135H25.529z M24.088,14.302c0.337,0,0.535,0.206,0.535,0.557c0,0.057-0.003,0.13-0.01,0.222
		l-1.248-0.003C23.47,14.578,23.728,14.302,24.088,14.302z"/>
	<polygon fill-rule="evenodd" clip-rule="evenodd" fill="#FFFFFF" points="12.263,12.426 11.165,15.722 11.119,12.426 9.49,12.426 
		8.604,17.75 9.665,17.75 10.348,13.681 10.441,17.75 11.214,17.75 12.663,13.657 12.014,17.75 13.146,17.75 14.021,12.426 	"/>
	<path fill-rule="evenodd" clip-rule="evenodd" fill="#FFFFFF" d="M17.188,14.593c0-0.83-0.515-1.27-1.486-1.27
		c-0.42,0-0.792,0.063-1.355,0.23l-0.156,0.973l0.101-0.028l0.156-0.045c0.252-0.075,0.617-0.122,0.941-0.122
		c0.527,0,0.726,0.107,0.726,0.393c0,0.078-0.009,0.139-0.045,0.282c-0.168-0.022-0.332-0.034-0.461-0.034
		c-1.257,0-1.988,0.615-1.988,1.669c0,0.699,0.421,1.183,1.034,1.183c0.519,0,0.901-0.169,1.188-0.523l-0.022,0.448h0.938
		l0.014-0.117l0.02-0.15l0.029-0.221l0.039-0.275l0.237-1.535C17.171,14.969,17.188,14.807,17.188,14.593z M15.121,16.903
		c-0.247,0-0.406-0.172-0.406-0.44c0-0.438,0.325-0.66,0.967-0.66c0.082,0,0.135,0.004,0.253,0.018
		C15.915,16.461,15.582,16.903,15.121,16.903z"/>
	<path fill-rule="evenodd" clip-rule="evenodd" fill="#FFFFFF" d="M33.542,13.323c-0.419,0-0.791,0.063-1.354,0.23l-0.157,0.973
		l0.102-0.028l0.156-0.045c0.253-0.075,0.617-0.122,0.94-0.122c0.528,0,0.727,0.107,0.727,0.393c0,0.078-0.01,0.139-0.045,0.282
		c-0.168-0.022-0.332-0.034-0.461-0.034c-1.257,0-1.988,0.615-1.988,1.669c0,0.699,0.421,1.183,1.034,1.183
		c0.519,0,0.901-0.169,1.188-0.523L33.66,17.75h0.938l0.014-0.117l0.02-0.15l0.029-0.221l0.039-0.275l0.237-1.535
		c0.074-0.482,0.092-0.645,0.092-0.858C35.029,13.763,34.514,13.323,33.542,13.323z M32.962,16.903c-0.248,0-0.406-0.172-0.406-0.44
		c0-0.438,0.325-0.66,0.967-0.66c0.082,0,0.135,0.004,0.253,0.018C33.757,16.461,33.423,16.903,32.962,16.903z"/>
	<path fill-rule="evenodd" clip-rule="evenodd" fill="#FFFFFF" d="M37.244,14.65c0.101-0.523,0.24-0.906,0.43-1.256l-0.038-0.01
		c-0.033-0.007-0.072-0.01-0.113-0.01c-0.371,0-0.583,0.191-0.93,0.703l0.1-0.657h-1.024l-0.69,4.33h1.133
		c0.405-2.648,0.513-3.104,1.056-3.104C37.2,14.646,37.199,14.645,37.244,14.65z"/>
</g>
</svg>
