<?xml version="1.0" encoding="utf-8"?>
<!-- Generator: Adobe Illustrator 16.0.0, SVG Export Plug-In . SVG Version: 6.00 Build 0)  -->
<!DOCTYPE svg PUBLIC "-//W3C//DTD SVG 1.1//EN" "http://www.w3.org/Graphics/SVG/1.1/DTD/svg11.dtd">
<svg version="1.1" id="Layer_1" xmlns="http://www.w3.org/2000/svg" xmlns:xlink="http://www.w3.org/1999/xlink" x="0px" y="0px"
	 width="50px" height="30px" viewBox="0 0 50 30" enable-background="new 0 0 50 30" xml:space="preserve">
<g>
	<path fill="#0058A1" d="M39.566,12.053c-0.165,0.481-0.453,1.265-0.439,1.236c0,0-1.058,2.872-1.333,3.613c0.66,0,2.254,0,2.776,0
		c-0.138-0.646-0.77-3.736-0.77-3.736L39.566,12.053z"/>
	<path fill="#0058A1" d="M0,0v30h50V0H0z M9.875,21.464L6.88,10.171c2.115,1.113,4.012,3.352,4.616,5.413l0.357,1.786l3.27-8.807
		h3.531l-5.248,12.9H9.875z M17.913,21.478l2.088-12.914h3.339l-2.089,12.914H17.913z M27.063,21.67
		c-1.498-0.014-2.94-0.33-3.724-0.687l0.467-2.899l0.44,0.206c1.085,0.481,1.8,0.688,3.132,0.688c0.962,0,1.993-0.398,2.007-1.265
		c0-0.563-0.439-0.975-1.731-1.607c-1.264-0.618-2.954-1.648-2.927-3.503c0.014-2.514,2.336-4.272,5.634-4.272
		c1.291,0,2.335,0.288,2.995,0.549l-0.453,2.789l-0.303-0.137c-0.604-0.262-1.401-0.522-2.487-0.495
		c-1.318,0-1.909,0.563-1.923,1.113c0,0.604,0.714,1.003,1.882,1.594c1.924,0.92,2.816,2.047,2.804,3.517
		C32.848,19.938,30.567,21.67,27.063,21.67z M41.518,21.478c0,0-0.302-1.483-0.397-1.938c-0.495,0-3.902,0-4.287,0
		c-0.124,0.344-0.701,1.938-0.701,1.938h-3.504l4.96-11.843c0.344-0.838,0.948-1.071,1.745-1.071h2.583l2.693,12.914H41.518z"/>
	<path fill-rule="evenodd" clip-rule="evenodd" fill="#FAA61A" d="M8.816,8.563H3.444L3.39,8.824c4.19,1.072,6.966,3.654,8.106,6.76
		l-1.168-5.936C10.136,8.824,9.545,8.591,8.816,8.563L8.816,8.563z"/>
</g>
</svg>
